<?xml version="1.0" encoding="UTF-8"?>
<svg xmlns="http://www.w3.org/2000/svg" width="1600" height="1390" viewBox="0 0 1600 1390" role="img" aria-labelledby="d6-title d6-desc">
<title id="d6-title">D6. Threat model, controls, and residual risk</title>
<desc id="d6-desc">Threat-model diagram mapping adversary or fault classes to the controls the prototype applies and to the residual risks that remain outside the paper's claim boundary.</desc>
<metadata>canonical_source=diagrams/06_threat_model.mmd;sha256=7494a0ccf3d418229c66c381ad68eb5c892b394d0e04231cb44439c37122d0f0;status=PREAUTHORIZATION_VISUAL_DERIVATIVE;evidence=NOT_SCIENTIFIC_EVIDENCE;independence=SAME_WORKSPACE_NOT_INDEPENDENT</metadata>
<defs><marker id="arrow" markerWidth="12" markerHeight="12" refX="10" refY="4" orient="auto-start-reverse"><path d="M0,0 L0,8 L11,4 z" fill="#24364b"/></marker></defs>
<style>.bg{fill:#ffffff}.title{font-family:Helvetica,Arial,sans-serif;font-weight:700;fill:#102a43}.subtitle,.heading{font-family:Helvetica,Arial,sans-serif;font-weight:600;fill:#334e68}.body,.edge-label{font-family:Helvetica,Arial,sans-serif;font-weight:500;fill:#102a43}.node{fill:#e8f1fb;stroke:#1463a5;stroke-width:3}.control{fill:#edf7ed;stroke:#276738;stroke-width:3}.boundary{fill:#fff8dc;stroke:#8a5a00;stroke-width:4;stroke-dasharray:11 7}.offline{fill:#fff1f0;stroke:#a32620;stroke-width:4;stroke-dasharray:11 7}.terminal{fill:#e7f7f5;stroke:#006d6f;stroke-width:4}.edge{fill:none;stroke:#24364b;stroke-width:3}.dashed{stroke-dasharray:10 7}.label-bg{fill:#ffffff;stroke:#c5d2df;stroke-width:1}.lane{fill:#f7fafc;stroke:#627d98;stroke-width:2;stroke-dasharray:12 7}.start{fill:#24364b;stroke:#ffffff;stroke-width:3}</style>
<rect width="1600" height="1390" class="bg"/>
<text x="800" y="56" text-anchor="middle" class="title" font-size="38px"><tspan x="800" dy="0">D6. Threat model, controls, and residual risk</tspan></text>
<text x="800" y="96" text-anchor="middle" class="subtitle" font-size="24px"><tspan x="800" dy="0">Canonical Mermaid source-bound preauthorization derivative</tspan></text>
<text x="230" y="150" text-anchor="middle" class="heading" font-size="28px"><tspan x="230" dy="0">THREAT / FAULT</tspan></text>
<text x="800" y="150" text-anchor="middle" class="heading" font-size="28px"><tspan x="800" dy="0">CONTROL</tspan></text>
<text x="1370" y="150" text-anchor="middle" class="heading" font-size="28px"><tspan x="1370" dy="0">RESIDUAL ASSUMPTION / LIMIT</tspan></text>
<g><rect x="40" y="195" width="380" height="120" rx="16" class="offline"/><text x="230" y="263" text-anchor="middle" class="body" font-size="24px"><tspan x="230" dy="0">Invalid partial</tspan></text></g>
<g><rect x="600" y="195" width="400" height="120" rx="16" class="control"/><text x="800" y="248" text-anchor="middle" class="body" font-size="24px"><tspan x="800" dy="0">Feldman plus DLEQ</tspan><tspan x="800" dy="30">verification</tspan></text></g>
<g><rect x="1180" y="195" width="380" height="120" rx="16" class="boundary"/><text x="1370" y="248" text-anchor="middle" class="body" font-size="24px"><tspan x="1370" dy="0">Crypto soundness</tspan><tspan x="1370" dy="30">assumption</tspan></text></g>
<path d="M420,255 L600,255" class="edge" marker-end="url(#arrow)"/>
<path d="M1000,255 L1180,255" class="edge dashed" marker-end="url(#arrow)"/>
<g><rect x="40" y="385" width="380" height="120" rx="16" class="offline"/><text x="230" y="453" text-anchor="middle" class="body" font-size="24px"><tspan x="230" dy="0">Non-response or churn</tspan></text></g>
<g><rect x="600" y="385" width="400" height="120" rx="16" class="control"/><text x="800" y="438" text-anchor="middle" class="body" font-size="24px"><tspan x="800" dy="0">Public deadline and</tspan><tspan x="800" dy="30">response commitment</tspan></text></g>
<g><rect x="1180" y="385" width="380" height="120" rx="16" class="boundary"/><text x="1370" y="438" text-anchor="middle" class="body" font-size="24px"><tspan x="1370" dy="0">Partial synchrony</tspan><tspan x="1370" dy="30">assumption</tspan></text></g>
<path d="M420,445 L600,445" class="edge" marker-end="url(#arrow)"/>
<path d="M1000,445 L1180,445" class="edge dashed" marker-end="url(#arrow)"/>
<g><rect x="40" y="575" width="380" height="120" rx="16" class="offline"/><text x="230" y="643" text-anchor="middle" class="body" font-size="24px"><tspan x="230" dy="0">Equivocation</tspan></text></g>
<g><rect x="600" y="575" width="400" height="120" rx="16" class="control"/><text x="800" y="628" text-anchor="middle" class="body" font-size="24px"><tspan x="800" dy="0">Context-bound signed</tspan><tspan x="800" dy="30">commitments</tspan></text></g>
<g><rect x="1180" y="575" width="380" height="120" rx="16" class="boundary"/><text x="1370" y="643" text-anchor="middle" class="body" font-size="24px"><tspan x="1370" dy="0">Identity correctness</tspan></text></g>
<path d="M420,635 L600,635" class="edge" marker-end="url(#arrow)"/>
<path d="M1000,635 L1180,635" class="edge dashed" marker-end="url(#arrow)"/>
<g><rect x="40" y="765" width="380" height="120" rx="16" class="offline"/><text x="230" y="833" text-anchor="middle" class="body" font-size="24px"><tspan x="230" dy="0">Correlated outage</tspan></text></g>
<g><rect x="600" y="765" width="400" height="120" rx="16" class="control"/><text x="800" y="818" text-anchor="middle" class="body" font-size="24px"><tspan x="800" dy="0">Domain diversity and</tspan><tspan x="800" dy="30">stratified sampling</tspan></text></g>
<g><rect x="1180" y="765" width="380" height="120" rx="16" class="boundary"/><text x="1370" y="818" text-anchor="middle" class="body" font-size="24px"><tspan x="1370" dy="0">Domain labels may</tspan><tspan x="1370" dy="30">be dishonest</tspan></text></g>
<path d="M420,825 L600,825" class="edge" marker-end="url(#arrow)"/>
<path d="M1000,825 L1180,825" class="edge dashed" marker-end="url(#arrow)"/>
<g><rect x="40" y="955" width="380" height="120" rx="16" class="offline"/><text x="230" y="1023" text-anchor="middle" class="body" font-size="24px"><tspan x="230" dy="0">Selective withholding</tspan></text></g>
<g><rect x="600" y="955" width="400" height="120" rx="16" class="control"/><text x="800" y="1008" text-anchor="middle" class="body" font-size="24px"><tspan x="800" dy="0">Counterexample experiment and</tspan><tspan x="800" dy="30">optional hidden request class</tspan></text></g>
<g><rect x="1180" y="955" width="380" height="120" rx="16" class="boundary"/><text x="1370" y="1008" text-anchor="middle" class="body" font-size="24px"><tspan x="1370" dy="0">Audits do not prove</tspan><tspan x="1370" dy="30">future cooperation</tspan></text></g>
<path d="M420,1015 L600,1015" class="edge" marker-end="url(#arrow)"/>
<path d="M1000,1015 L1180,1015" class="edge dashed" marker-end="url(#arrow)"/>
<g><rect x="40" y="1145" width="380" height="120" rx="16" class="offline"/><text x="230" y="1198" text-anchor="middle" class="body" font-size="24px"><tspan x="230" dy="0">Early key-release</tspan><tspan x="230" dy="30">collusion</tspan></text></g>
<g><rect x="600" y="1145" width="400" height="120" rx="16" class="control"/><text x="800" y="1198" text-anchor="middle" class="body" font-size="24px"><tspan x="800" dy="0">Threshold, rotation,</tspan><tspan x="800" dy="30">policy gate</tspan></text></g>
<g><rect x="1180" y="1145" width="380" height="120" rx="16" class="boundary"/><text x="1370" y="1198" text-anchor="middle" class="body" font-size="24px"><tspan x="1370" dy="0">Fewer than t collude</tspan><tspan x="1370" dy="30">before authorization</tspan></text></g>
<path d="M420,1205 L600,1205" class="edge" marker-end="url(#arrow)"/>
<path d="M1000,1205 L1180,1205" class="edge dashed" marker-end="url(#arrow)"/>
<g><rect x="182" y="1335" width="1237" height="46" rx="8" class="label-bg"/><text x="800" y="1360" text-anchor="middle" class="edge-label" font-size="24px"><tspan x="800" dy="0">Dashed boundary arrows denote residual assumptions or limitations, not certified mitigations.</tspan></text></g>
</svg>
