<?xml version="1.0" encoding="UTF-8"?>
<svg xmlns="http://www.w3.org/2000/svg" width="1600" height="1260" viewBox="0 0 1600 1260" role="img" aria-labelledby="d8-title d8-desc">
<title id="d8-title">D8. Reproducible minimum publishable prototype pipeline</title>
<desc id="d8-desc">Pipeline diagram linking frozen configuration, adversarial simulation, metrics, figures, and paper-ready evidence so the prototype outputs remain traceable to the declared experimental inputs.</desc>
<metadata>canonical_source=diagrams/08_experiment_pipeline.mmd;sha256=9c49604423fef3341b0ab25be9153a03aef9b7a0dfe14dbb4e22a7488d1406d6;status=PREAUTHORIZATION_VISUAL_DERIVATIVE;evidence=NOT_SCIENTIFIC_EVIDENCE;independence=SAME_WORKSPACE_NOT_INDEPENDENT</metadata>
<defs><marker id="arrow" markerWidth="12" markerHeight="12" refX="10" refY="4" orient="auto-start-reverse"><path d="M0,0 L0,8 L11,4 z" fill="#24364b"/></marker></defs>
<style>.bg{fill:#ffffff}.title{font-family:Helvetica,Arial,sans-serif;font-weight:700;fill:#102a43}.subtitle,.heading{font-family:Helvetica,Arial,sans-serif;font-weight:600;fill:#334e68}.body,.edge-label{font-family:Helvetica,Arial,sans-serif;font-weight:500;fill:#102a43}.node{fill:#e8f1fb;stroke:#1463a5;stroke-width:3}.control{fill:#edf7ed;stroke:#276738;stroke-width:3}.boundary{fill:#fff8dc;stroke:#8a5a00;stroke-width:4;stroke-dasharray:11 7}.offline{fill:#fff1f0;stroke:#a32620;stroke-width:4;stroke-dasharray:11 7}.terminal{fill:#e7f7f5;stroke:#006d6f;stroke-width:4}.edge{fill:none;stroke:#24364b;stroke-width:3}.dashed{stroke-dasharray:10 7}.label-bg{fill:#ffffff;stroke:#c5d2df;stroke-width:1}.lane{fill:#f7fafc;stroke:#627d98;stroke-width:2;stroke-dasharray:12 7}.start{fill:#24364b;stroke:#ffffff;stroke-width:3}</style>
<rect width="1600" height="1260" class="bg"/>
<text x="800" y="56" text-anchor="middle" class="title" font-size="38px"><tspan x="800" dy="0">D8. Reproducible minimum publishable prototype pipeline</tspan></text>
<text x="800" y="96" text-anchor="middle" class="subtitle" font-size="24px"><tspan x="800" dy="0">Canonical Mermaid source-bound preauthorization derivative</tspan></text>
<g><rect x="525" y="150" width="550" height="100" rx="16" class="control"/><text x="800" y="193" text-anchor="middle" class="body" font-size="24px"><tspan x="800" dy="0">Frozen config: n, t, s, q,</tspan><tspan x="800" dy="30">domains, seeds</tspan></text></g>
<g><rect x="40" y="380" width="350" height="110" rx="16" class="node"/><text x="215" y="443" text-anchor="middle" class="body" font-size="24px"><tspan x="215" dy="0">Crypto unit tests</tspan></text></g>
<path d="M800,250 L215,380" class="edge" marker-end="url(#arrow)"/>
<g><rect x="430" y="380" width="350" height="110" rx="16" class="node"/><text x="605" y="428" text-anchor="middle" class="body" font-size="24px"><tspan x="605" dy="0">End-to-end audit</tspan><tspan x="605" dy="30">and dispute demo</tspan></text></g>
<path d="M800,250 L605,380" class="edge" marker-end="url(#arrow)"/>
<g><rect x="820" y="380" width="350" height="110" rx="16" class="node"/><text x="995" y="443" text-anchor="middle" class="body" font-size="24px"><tspan x="995" dy="0">Adversarial simulator</tspan></text></g>
<path d="M800,250 L995,380" class="edge" marker-end="url(#arrow)"/>
<g><rect x="1210" y="380" width="350" height="110" rx="16" class="node"/><text x="1385" y="443" text-anchor="middle" class="body" font-size="24px"><tspan x="1385" dy="0">Microbenchmarks</tspan></text></g>
<path d="M800,250 L1385,380" class="edge" marker-end="url(#arrow)"/>
<g><rect x="525" y="650" width="550" height="110" rx="16" class="control"/><text x="800" y="698" text-anchor="middle" class="body" font-size="24px"><tspan x="800" dy="0">Versioned CSV/JSON</tspan><tspan x="800" dy="30">and manifest</tspan></text></g>
<path d="M215,490 L800,650" class="edge" marker-end="url(#arrow)"/>
<path d="M605,490 L800,650" class="edge" marker-end="url(#arrow)"/>
<path d="M995,490 L800,650" class="edge" marker-end="url(#arrow)"/>
<path d="M1385,490 L800,650" class="edge" marker-end="url(#arrow)"/>
<g><rect x="250" y="880" width="430" height="100" rx="16" class="node"/><text x="465" y="938" text-anchor="middle" class="body" font-size="24px"><tspan x="465" dy="0">Publication figures</tspan></text></g>
<g><rect x="920" y="880" width="430" height="100" rx="16" class="node"/><text x="1135" y="938" text-anchor="middle" class="body" font-size="24px"><tspan x="1135" dy="0">Claim-evidence matrix</tspan></text></g>
<path d="M700,760 L465,880" class="edge" marker-end="url(#arrow)"/>
<path d="M900,760 L1135,880" class="edge" marker-end="url(#arrow)"/>
<g><rect x="585" y="1060" width="430" height="90" rx="16" class="terminal"/><text x="800" y="1113" text-anchor="middle" class="body" font-size="24px"><tspan x="800" dy="0">MPP paper</tspan></text></g>
<path d="M465,980 L720,1060" class="edge" marker-end="url(#arrow)"/>
<path d="M1135,980 L880,1060" class="edge" marker-end="url(#arrow)"/>
<g><rect x="585" y="1190" width="430" height="60" rx="16" class="boundary"/><text x="800" y="1228" text-anchor="middle" class="body" font-size="24px"><tspan x="800" dy="0">Publication success gates</tspan></text></g>
<path d="M800,1150 L800,1190" class="edge" marker-end="url(#arrow)"/>
</svg>
